<?xml version="1.0" encoding="UTF-8"?>
<svg width="256" height="256" viewBox="0 0 256 256" version="1.1" xmlns="http://www.w3.org/2000/svg">
    <rect x="0" y="0" width="256" height="256" fill="white"/>
    <!-- QR Code pattern - simplified for demo -->
    <g fill="black">
        <!-- Position detection patterns -->
        <rect x="32" y="32" width="48" height="48"/>
        <rect x="40" y="40" width="32" height="32" fill="white"/>
        <rect x="48" y="48" width="16" height="16"/>
        
        <rect x="176" y="32" width="48" height="48"/>
        <rect x="184" y="40" width="32" height="32" fill="white"/>
        <rect x="192" y="48" width="16" height="16"/>
        
        <rect x="32" y="176" width="48" height="48"/>
        <rect x="40" y="184" width="32" height="32" fill="white"/>
        <rect x="48" y="192" width="16" height="16"/>
        
        <!-- Data pattern - simplified -->
        <rect x="96" y="32" width="16" height="16"/>
        <rect x="128" y="32" width="16" height="16"/>
        <rect x="144" y="48" width="16" height="16"/>
        <rect x="96" y="64" width="16" height="16"/>
        <rect x="128" y="80" width="16" height="16"/>
        <rect x="32" y="96" width="16" height="16"/>
        <rect x="64" y="112" width="16" height="16"/>
        <rect x="96" y="96" width="16" height="16"/>
        <rect x="144" y="96" width="16" height="16"/>
        <rect x="176" y="96" width="16" height="16"/>
        <rect x="208" y="112" width="16" height="16"/>
        <rect x="32" y="144" width="16" height="16"/>
        <rect x="96" y="128" width="16" height="16"/>
        <rect x="128" y="144" width="16" height="16"/>
        <rect x="160" y="128" width="16" height="16"/>
        <rect x="208" y="144" width="16" height="16"/>
        <rect x="96" y="176" width="16" height="16"/>
        <rect x="144" y="176" width="16" height="16"/>
        <rect x="176" y="208" width="16" height="16"/>
        <rect x="208" y="176" width="16" height="16"/>
    </g>
</svg>
